HIERARCHY
ROOT RootJoint
{
    OFFSET   0.000000   0.000000   0.000000
    CHANNELS 6 Xposition Yposition Zposition Xrotation Yrotation Zrotation
    JOINT pelvis_lowerback
    {
        OFFSET   0.000000   0.093605   0.000000
        CHANNELS 3 Xrotation Yrotation Zrotation
        JOINT lowerback_torso
        {
            OFFSET   0.000000   0.100000   0.000000
            CHANNELS 3 Xrotation Yrotation Zrotation
            JOINT torso_head
            {
                OFFSET   0.000000   0.282350   0.000000
                CHANNELS 3 Xrotation Yrotation Zrotation
                End Site
                {
                    OFFSET   0.000000   0.192650   0.000000
                }
            }
            JOINT rTorso_Clavicle
            {
                OFFSET  -0.001000   0.157500   0.000000
                CHANNELS 3 Xrotation Yrotation Zrotation
                JOINT rShoulder
                {
                    OFFSET  -0.117647   0.000000   0.000000
                    CHANNELS 3 Xrotation Yrotation Zrotation
                    JOINT rElbow
                    {
                        OFFSET  -0.245000   0.000000   0.000000
                        CHANNELS 3 Xrotation Yrotation Zrotation
                        JOINT rWrist
                        {
                            OFFSET  -0.240000   0.000000   0.000000
                            CHANNELS 3 Xrotation Yrotation Zrotation
                            End Site
                            {
                                OFFSET  -0.116353  -0.002500   0.000000
                            }
                        }
                    }
                }
            }
            JOINT lTorso_Clavicle
            {
                OFFSET   0.001000   0.157500   0.000000
                CHANNELS 3 Xrotation Yrotation Zrotation
                JOINT lShoulder
                {
                    OFFSET   0.117647   0.000000   0.000000
                    CHANNELS 3 Xrotation Yrotation Zrotation
                    JOINT lElbow
                    {
                        OFFSET   0.245000   0.000000   0.000000
                        CHANNELS 3 Xrotation Yrotation Zrotation
                        JOINT lWrist
                        {
                            OFFSET   0.240000   0.000000   0.000000
                            CHANNELS 3 Xrotation Yrotation Zrotation
                            End Site
                            {
                                OFFSET   0.116353  -0.002500   0.000000
                            }
                        }
                    }
                }
            }
        }
    }
    JOINT rHip
    {
        OFFSET  -0.100000  -0.051395   0.000000
        CHANNELS 3 Xrotation Yrotation Zrotation
        JOINT rKnee
        {
            OFFSET   0.000000  -0.410000   0.000000
            CHANNELS 3 Xrotation Yrotation Zrotation
            JOINT rAnkle
            {
                OFFSET   0.000000  -0.390000   0.000000
                CHANNELS 3 Xrotation Yrotation Zrotation
                JOINT rToeJoint
                {
                    OFFSET   0.000000  -0.050000   0.130000
                    CHANNELS 3 Xrotation Yrotation Zrotation
                    End Site
                    {
                        OFFSET  -0.010000   0.002000   0.060000
                    }
                }
            }
        }
    }
    JOINT lHip
    {
        OFFSET   0.100000  -0.051395   0.000000
        CHANNELS 3 Xrotation Yrotation Zrotation
        JOINT lKnee
        {
            OFFSET   0.000000  -0.410000   0.000000
            CHANNELS 3 Xrotation Yrotation Zrotation
            JOINT lAnkle
            {
                OFFSET   0.000000  -0.390000   0.000000
                CHANNELS 3 Xrotation Yrotation Zrotation
                JOINT lToeJoint
                {
                    OFFSET   0.000000  -0.050000   0.130000
                    CHANNELS 3 Xrotation Yrotation Zrotation
                    End Site
                    {
                        OFFSET   0.010000   0.002000   0.060000
                    }
                }
            }
        }
    }
}
MOTION
Frames: 15
Frame Time:   0.008333
 -2.376719   0.925631   3.975860   0.000000   0.000000   0.000000   0.000000   0.000000   0.000000   0.000000   0.000000   0.000000   0.000000   0.000000   0.000000   0.000000   0.000000   0.000000   0.000000   0.000000   0.000000   0.000000   0.000000   0.000000   0.000000   0.000000   0.000000   0.000000   0.000000   0.000000   0.000000   0.000000   0.000000   0.000000   0.000000   0.000000   0.000000   0.000000   0.000000   0.000000   0.000000   0.000000   0.000000   0.000000   0.000000   0.000000   0.000000   0.000000   0.000000   0.000000   0.000000   0.000000   0.000000   0.000000   0.000000   0.000000   0.000000   0.000000   0.000000   0.000000   0.000000   0.000000   0.000000
 -2.375993   0.926040   3.974973  -0.758580   0.084618   0.250570   0.957890   0.018906  -0.000875   0.062462   0.046985  -0.243739  -0.087654   0.409745   0.117653   0.096329  -0.411743  -0.034083   1.255979   0.376939   2.177095   0.028895   1.521188  -0.021842   0.430774  -1.010620  -2.900392  -0.023885  -0.046438  -0.415497   0.963416  -0.305715  -1.872238   0.055650  -2.750911   0.030219   0.367007   1.648416   3.189630  -0.561297  -0.123284  -0.198761   3.525622  -0.001671  -0.001196   0.876858  -0.686526   0.769800  -1.106116   0.007698   0.007289   0.405334   0.031862  -0.544507   1.725958   0.004468   0.001700  -2.116131   0.438284   0.793154   0.307637  -0.001332   0.001524
 -2.375006   0.928177   3.973547  -1.701268   0.206849   0.283674   1.978473  -0.010201   0.241032   0.271363   0.028851  -0.435490  -0.140680   0.817049   0.252684   0.197873  -0.608545   0.583224   2.469661   0.974615   4.841123   0.069161   3.036104  -0.039508   0.897386  -1.476644  -5.288494  -0.046241  -0.395943  -1.660774   1.836073  -0.902075  -4.246998   0.132548  -5.482280   0.054256   0.754415   2.316177   5.720291  -1.348475  -0.221955  -0.251334   6.745896  -0.000941  -0.000325   0.599488  -1.342662   1.163203  -3.729788   0.013351   0.021526   1.067469   0.059039  -1.055349   3.624367   0.011716   0.003338  -4.096910   0.825596   1.548849   0.523525  -0.001566   0.002274
 -2.373934   0.930775   3.972150  -2.727903   0.492722   0.337254   2.958865  -0.155342   0.423341   0.520063  -0.100341  -0.622323  -0.184756   1.197499   0.401606   0.289889  -0.664151   1.591478   3.626081   1.731221   7.829501   0.109044   4.491851  -0.051402   1.363483  -1.625247  -6.897216  -0.083544  -0.956229  -3.303954   2.608884  -1.676870  -6.828183   0.207329  -8.104553   0.069947   1.148263   2.440529   7.351703  -2.266329  -0.323435  -0.360405  10.320898   0.001389   0.005086   0.925240  -1.968684   1.681356  -7.346785   0.020263   0.035024   1.933102   0.058803  -1.726108   5.493456   0.020104   0.006192  -5.948784   1.158665   2.262263   0.713242  -0.001377   0.002883
 -2.372943   0.933213   3.971028  -3.743992   0.851440   0.403316   3.832243  -0.364558   0.547015   0.738933  -0.300914  -0.824018  -0.231971   1.552248   0.546544   0.370071  -0.645925   2.822525   4.722394   2.604119  11.024631   0.143209   5.874731  -0.058092   1.828119  -1.586898  -7.923511  -0.142520  -1.623062  -5.148445   3.285243  -2.547291  -9.462543   0.270106 -10.595183   0.078312   1.549628   2.258597   8.332473  -3.191144  -0.478406  -0.442695  13.988786   0.002640   0.010060   1.509464  -2.615928   2.258769 -10.990711   0.025391   0.048330   2.922533   0.040713  -2.496276   7.290761   0.028260   0.008529  -7.681384   1.446534   2.936145   0.875209  -0.001011   0.003222
 -2.372056   0.935203   3.970169  -4.703887   1.228433   0.444744   4.596088  -0.610773   0.647490   0.904422  -0.543745  -1.035968  -0.288976   1.883014   0.682097   0.438605  -0.596061   4.164594   5.756920   3.563042  14.348319   0.169685   7.177445  -0.060896   2.284000  -1.452813  -8.563577  -0.223278  -2.327618  -7.090891   3.872299  -3.456662 -12.074021   0.317576 -12.943778   0.081646   1.947734   1.919625   8.875455  -4.103572  -0.628920  -0.494794  17.474658   0.004054   0.014329   2.158579  -3.241475   2.814047 -13.404155   0.024083   0.052042   3.972861   0.003281  -3.305575   9.009769   0.035577   0.009563  -9.301112   1.695483   3.572800   1.017988  -0.000589   0.003324
 -2.371301   0.936560   3.969535  -5.596399   1.606026   0.444685   5.265477  -0.883352   0.732906   1.022372  -0.814888  -1.246576  -0.354834   2.191189   0.807536   0.499395  -0.539736   5.562928   6.713847   4.574000  17.710171   0.188029   8.398717  -0.060867   2.725123  -1.275334  -8.926962  -0.322257  -3.031706  -9.059708   4.379001  -4.371402 -14.616233   0.349726 -15.149000   0.081984   2.333455   1.509317   9.127819  -4.997009  -0.758879  -0.500892  20.764137   0.005629   0.017954   2.832017  -3.819141   3.351762 -14.986325   0.020789   0.049656   5.052457  -0.054879  -4.123479  10.648693   0.041773   0.009338 -10.814574   1.910406   4.173670   1.146270  -0.000168   0.003254
 -2.370728   0.936486   3.968089  -6.267136   1.734294   0.123657   5.881700  -0.888145   1.032676   1.180686  -0.932427  -1.208915  -0.296283   2.323593   0.704163   0.889137  -0.407751   6.358199   7.558194   5.498932  20.721215   0.200506   9.750252  -0.067806   2.996493  -1.067011  -8.366786  -0.359237  -3.850256 -10.336422   4.871865  -5.706480 -17.461937   0.384076 -17.725384   0.096266   2.544375   1.413908   8.884118  -6.532745  -0.548132  -0.160685  24.273167   0.008694   0.024755   1.741718  -4.181019   3.158203 -13.936402   0.020299   0.039892   6.443169  -0.171075  -4.498535  10.763017   0.034144   0.007347 -11.898551   1.837294   4.549947   1.580471   0.001260   0.002496
 -2.370212   0.935186   3.966044  -6.860758   1.985255  -0.250056   6.571840  -0.970260   1.360187   1.376654  -1.117745  -1.122708  -0.224449   2.447435   0.615238   1.221807  -0.207256   6.909469   8.287616   6.444221  23.385565   0.202298  11.033249  -0.073041   3.283273  -0.753693  -7.916383  -0.466022  -4.788633 -11.383619   5.236261  -7.117688 -20.018074   0.399544 -20.200211   0.111155   2.813201   0.987788   8.684254  -8.267751  -0.365423   0.183830  27.485592   0.014059   0.031545   0.705007  -4.513239   2.968242 -13.053291   0.019486   0.033166   7.825088  -0.319151  -4.712077  10.696738   0.026923   0.005964 -12.918613   1.756691   4.898435   1.979151   0.002067   0.002196
 -2.369724   0.932762   3.963732  -7.404996   2.324372  -0.623393   7.301746  -1.115294   1.677794   1.600076  -1.365536  -1.029259  -0.140288   2.563484   0.537309   1.502724   0.025132   7.303258   8.915449   7.381175  25.775195   0.197255  12.243878  -0.075849   3.572722  -0.388880  -7.669422  -0.637012  -5.782398 -12.259483   5.487358  -8.536475 -22.317688   0.401621 -22.547949   0.123896   3.118835   0.369793   8.656041 -10.103159  -0.198031   0.471867  30.403412   0.020695   0.036890  -0.267699  -4.820045   2.783955 -12.251749   0.018810   0.028376   9.200672  -0.466998  -4.834157  10.617342   0.021112   0.004784 -13.872057   1.677346   5.222396   2.342504   0.002451   0.002200
 -2.369260   0.929293   3.961383  -7.907072   2.712101  -0.988358   8.037378  -1.302675   1.979719   1.833889  -1.655224  -0.938771  -0.047288   2.671744   0.465333   1.746494   0.258923   7.587898   9.460261   8.284498  27.939622   0.187884  13.379211  -0.076156   3.856756  -0.013829  -7.577371  -0.855602  -6.781514 -13.008014   5.645300  -9.922911 -24.405481   0.394642 -24.763471   0.133250   3.443300  -0.350238   8.772748 -11.989577  -0.039603   0.697768  33.057982   0.027429   0.040057  -1.179775  -5.103689   2.606080 -11.520707   0.018238   0.024725  10.578954  -0.611495  -4.886496  10.555473   0.016586   0.003803 -14.761445   1.600159   5.523833   2.676984   0.002562   0.002291
 -2.368830   0.924834   3.959138  -8.371684   3.119609  -1.345745   8.756582  -1.516732   2.264956   2.066458  -1.969947  -0.854206   0.049831   2.772610   0.397750   1.965852   0.475306   7.795641   9.938515   9.138880  29.915160   0.175901  14.438576  -0.074273   4.130119   0.342075  -7.588875  -1.104459  -7.753042 -13.662426   5.729432 -11.251927 -26.317904   0.381625 -26.846244   0.138939   3.774760  -1.114911   8.990005 -13.892795   0.112274   0.868144  35.479797   0.033437   0.041022  -2.034615  -5.366067   2.435202 -10.853478   0.017692   0.021735  11.961162  -0.752335  -4.880575  10.518773   0.013103   0.003026 -15.590521   1.525387   5.804545   2.985840   0.002504   0.002352
 -2.368442   0.919432   3.957073  -8.803492   3.526512  -1.697655   9.447002  -1.745775   2.532958   2.292005  -2.297031  -0.776949   0.147243   2.866530   0.334030   2.170131   0.664884   7.948552  10.363417   9.937166  31.728888   0.162500  15.423565  -0.070692   4.389903   0.661501  -7.666481  -1.368713  -8.677508 -14.246211   5.756544 -12.509375 -28.082706   0.364681 -28.798718   0.141228   4.105613  -1.887199   9.271503 -15.787129   0.258694   0.992398  37.695383   0.038260   0.040125  -2.835498  -5.608837   2.271698 -10.244379   0.017107   0.019141  13.342925  -0.888985  -4.825927  10.508532   0.010437   0.002429 -16.363120   1.453155   6.066112   3.271428   0.002348   0.002333
 -2.368811   0.913051   3.954836  -8.917765   3.984019  -2.154965   9.942834  -2.012767   2.675787   2.416358  -2.562015  -0.624940   0.138822   2.967003   0.339023   2.338510   0.751654   7.835528  10.716884  10.637037  33.389215   0.152368  16.736372  -0.069722   4.550596   0.856882  -7.298520  -1.446757  -9.456788 -14.172886   5.693844 -13.848580 -29.518977   0.344281 -30.919770   0.147203   4.385380  -2.555203   8.844312 -17.606337   0.189006   1.127967  38.574403   0.034962   0.033786  -3.120563  -5.990847   2.264676  -9.413076   0.016389   0.015463  14.443515  -1.280003  -4.441591   9.962860   0.007403   0.002142 -16.316597   1.142005   6.063842   3.438629   0.002123   0.001372
 -2.369523   0.905711   3.952510  -8.939434   4.383137  -2.620059  10.419219  -2.226417   2.736983   2.478796  -2.774765  -0.485115   0.133638   3.061589   0.331585   2.474761   0.838896   7.575015  11.024727  11.292318  34.838444   0.138173  17.973353  -0.067639   4.710474   1.120881  -7.054110  -1.573084 -10.171621 -13.816763   5.588096 -15.079815 -30.665750   0.316166 -32.915227   0.147633   4.679470  -3.282968   8.642418 -19.404370   0.118037   1.196067  39.145737   0.030906   0.027725  -3.394152  -6.348153   2.256523  -8.616871   0.015732   0.012178  15.412866  -1.649968  -3.920315   9.348300   0.005638   0.002052 -16.269331   0.848283   6.061431   3.641693   0.001762   0.000443
